<svg width="24" height="24" viewBox="0 0 24 24" fill="none" xmlns="http://www.w3.org/2000/svg">
<path fill-rule="evenodd" clip-rule="evenodd" d="M3.7709 13.0057L6.99426 16.2291C7.95284 17.1877 9.507 17.1877 10.4656 16.2291L11.0816 15.613L9.21817 13.7496C7.84878 12.3802 7.84878 10.16 9.21817 8.79057L11.0816 6.92712L10.4656 6.31107C9.507 5.35249 7.95284 5.35249 6.99426 6.31106L3.7709 9.53443C2.81232 10.493 2.81232 12.0472 3.7709 13.0057ZM11.8255 6.18327L11.2094 5.56721C9.84003 4.19782 7.6198 4.19782 6.25041 5.56721L3.02705 8.79057C1.65765 10.16 1.65765 12.3802 3.02705 13.7496L6.25041 16.973C7.6198 18.3423 9.84003 18.3423 11.2094 16.973L11.8255 16.3569L12.4415 16.973C13.8109 18.3423 16.0312 18.3423 17.4006 16.973L20.6239 13.7496C21.9933 12.3802 21.9933 10.16 20.6239 8.79057L17.4006 5.56721C16.0312 4.19782 13.8109 4.19782 12.4415 5.56721L11.8255 6.18327ZM12.5693 15.613L13.1854 16.2291C14.144 17.1877 15.6981 17.1877 16.6567 16.2291L19.8801 13.0057C20.8386 12.0472 20.8386 10.493 19.8801 9.53443L16.6567 6.31107C15.6981 5.35249 14.144 5.35249 13.1854 6.31106L12.5693 6.92712L14.4328 8.79057C15.8022 10.16 15.8022 12.3802 14.4328 13.7496L12.5693 15.613ZM11.8255 14.8692L13.6889 13.0057C14.6475 12.0472 14.6475 10.493 13.6889 9.53443L11.8255 7.67097L9.96202 9.53443C9.00345 10.493 9.00345 12.0472 9.96202 13.0057L11.8255 14.8692Z" fill="#3EC2C3"/>
</svg>
