<svg width="396" height="225" viewBox="0 0 396 225" fill="none" xmlns="http://www.w3.org/2000/svg">
<path fill-rule="evenodd" clip-rule="evenodd" d="M164.634 70.1123L167.494 65.696C175.908 52.6994 199.003 52.6994 219.077 65.696L286.58 109.399C306.655 122.396 316.107 143.468 307.693 156.464L279.398 200.167C270.984 213.164 247.889 213.164 227.815 200.167L222.209 196.538L241.114 167.336C253.135 148.77 239.632 118.667 210.954 100.101L164.634 70.1123ZM149.057 60.027L151.916 55.6106C163.936 37.044 196.929 37.044 225.607 55.6107L293.11 99.3139C321.787 117.881 335.291 147.983 323.27 166.55L294.976 210.253C282.955 228.819 249.963 228.819 221.285 210.253L215.679 206.623L212.82 211.04C200.799 229.606 167.807 229.606 139.129 211.04L71.6261 167.336C42.9484 148.77 29.4451 118.667 41.4656 100.101L69.7601 56.3975C81.7806 37.8308 114.773 37.8309 143.451 56.3975L149.057 60.027ZM200.101 196.538L197.242 200.954C188.828 213.951 165.733 213.951 145.659 200.954L78.1556 157.251C58.0812 144.254 48.6289 123.183 57.0433 110.186L85.3378 66.4828C93.7521 53.4862 116.847 53.4862 136.921 66.4828L142.527 70.1123L123.621 99.3139C111.601 117.881 125.104 147.983 153.782 166.55L200.101 196.538ZM206.631 186.453L160.311 156.464C140.237 143.468 130.785 122.396 139.199 109.399L158.105 80.1977L204.424 110.186C224.499 123.183 233.951 144.254 225.537 157.251L206.631 186.453Z" fill="#3EC2C3" fill-opacity="0.1"/>
<path fill-rule="evenodd" clip-rule="evenodd" d="M195.899 28.4266L198.758 24.0103C207.172 11.0136 230.267 11.0136 250.341 24.0103L317.844 67.7135C337.919 80.7102 347.371 101.782 338.957 114.779L310.662 158.482C302.248 171.478 279.153 171.478 259.079 158.482L253.473 154.852L272.379 125.651C284.399 107.084 270.896 76.9816 242.218 58.415L195.899 28.4266ZM180.321 18.3412L183.18 13.9249C195.201 -4.64173 228.193 -4.6417 256.871 13.9249L324.374 57.6282C353.052 76.1948 366.555 106.297 354.534 124.864L326.24 168.567C314.219 187.134 281.227 187.134 252.549 168.567L246.943 164.938L244.084 169.354C232.064 187.921 199.071 187.921 170.394 169.354L102.89 125.651C74.2126 107.084 60.7093 76.9816 72.7298 58.4149L101.024 14.7117C113.045 -3.85493 146.037 -3.8549 174.715 14.7117L180.321 18.3412ZM231.366 154.852L228.506 159.269C220.092 172.265 196.997 172.265 176.923 159.269L109.42 115.565C89.3454 102.569 79.8931 81.497 88.3074 68.5003L116.602 24.7971C125.016 11.8004 148.111 11.8004 168.185 24.7971L173.791 28.4266L154.886 57.6281C142.865 76.1948 156.368 106.297 185.046 124.864L231.366 154.852ZM237.895 144.767L191.576 114.778C171.501 101.782 162.049 80.7102 170.463 67.7135L189.369 38.5119L235.689 68.5003C255.763 81.497 265.215 102.569 256.801 115.565L237.895 144.767Z" fill="#3EC2C3"/>
</svg>
