<svg width="520" height="451" viewBox="0 0 520 451" fill="none" xmlns="http://www.w3.org/2000/svg">
<path fill-rule="evenodd" clip-rule="evenodd" d="M318.343 151.572L323.872 143.032C340.142 117.901 384.799 117.901 423.616 143.032L554.143 227.538C592.959 252.669 611.236 293.414 594.966 318.545L540.255 403.051C523.984 428.182 479.328 428.182 440.511 403.051L429.671 396.033L466.228 339.568C489.471 303.667 463.361 245.46 407.909 209.558L318.343 151.572ZM288.222 132.07L277.382 125.052C221.929 89.1511 158.134 89.151 134.891 125.052L80.1794 209.558C56.9362 245.46 83.0466 303.667 138.499 339.568L269.026 424.074C324.478 459.975 388.273 459.975 411.517 424.074L417.045 415.535L427.885 422.553C483.338 458.454 547.133 458.454 570.376 422.553L625.088 338.046C648.331 302.145 622.22 243.938 566.768 208.037L436.241 123.531C380.789 87.6297 316.994 87.6296 293.751 123.531L288.222 132.07ZM386.924 396.033L381.395 404.573C365.125 429.704 320.468 429.704 281.651 404.573L151.125 320.066C112.308 294.936 94.0307 254.191 110.301 229.06L165.012 144.554C181.283 119.423 225.939 119.423 264.756 144.554L275.596 151.572L239.039 208.037C215.796 243.938 241.906 302.145 297.359 338.046L386.924 396.033ZM399.549 376.532L309.984 318.545C271.168 293.414 252.89 252.669 269.161 227.538L305.718 171.073L395.283 229.06C434.099 254.191 452.377 294.936 436.106 320.067L399.549 376.532Z" fill="#EBEBEB"/>
<g filter="url(#filter0_d)">
<path fill-rule="evenodd" clip-rule="evenodd" d="M378.797 70.9668L384.326 62.4272C400.596 37.2965 445.253 37.2965 484.069 62.4273L614.596 146.934C653.413 172.064 671.69 212.809 655.42 237.94L600.708 322.446C584.438 347.577 539.782 347.577 500.965 322.446L490.125 315.428L526.682 258.963C549.925 223.062 523.815 164.855 468.362 128.954L378.797 70.9668ZM348.676 51.4654L354.204 42.9258C377.448 7.02468 441.243 7.02475 496.695 42.9259L627.222 127.432C682.674 163.333 708.785 221.54 685.542 257.442L630.83 341.948C607.587 377.849 543.791 377.849 488.339 341.948L477.499 334.93L471.97 343.469C448.727 379.37 384.932 379.37 329.48 343.469L198.953 258.963C143.501 223.062 117.39 164.855 140.633 128.953L195.345 44.4472C218.588 8.54607 282.383 8.54615 337.836 44.4473L348.676 51.4654ZM447.378 315.428L441.849 323.968C425.579 349.099 380.922 349.099 342.105 323.968L211.579 239.461C172.762 214.331 154.485 173.586 170.755 148.455L225.466 63.9486C241.737 38.8179 286.393 38.8179 325.21 63.9487L336.05 70.9668L299.493 127.432C276.25 163.333 302.36 221.54 357.812 257.441L447.378 315.428ZM460.003 295.927L370.438 237.94C331.622 212.809 313.344 172.064 329.615 146.933L366.171 90.4682L455.737 148.455C494.553 173.586 512.831 214.331 496.56 239.462L460.003 295.927Z" fill="#333333"/>
</g>
<defs>
<filter id="filter0_d" x="108.142" y="0" width="609.892" height="402.395" filterUnits="userSpaceOnUse" color-interpolation-filters="sRGB">
<feFlood flood-opacity="0" result="BackgroundImageFix"/>
<feColorMatrix in="SourceAlpha" type="matrix" values="0 0 0 0 0 0 0 0 0 0 0 0 0 0 0 0 0 0 127 0" result="hardAlpha"/>
<feOffset dy="8"/>
<feGaussianBlur stdDeviation="12"/>
<feColorMatrix type="matrix" values="0 0 0 0 0.211765 0 0 0 0 0.207843 0 0 0 0 0.207843 0 0 0 0.15 0"/>
<feBlend mode="normal" in2="BackgroundImageFix" result="effect1_dropShadow"/>
<feBlend mode="normal" in="SourceGraphic" in2="effect1_dropShadow" result="shape"/>
</filter>
</defs>
</svg>
